<?xml version="1.0" standalone="no"?><!DOCTYPE svg PUBLIC "-//W3C//DTD SVG 1.1//EN" "http://www.w3.org/Graphics/SVG/1.1/DTD/svg11.dtd"><svg t="1728931259666" class="icon" viewBox="0 0 1024 1024" version="1.1" xmlns="http://www.w3.org/2000/svg" p-id="1606" xmlns:xlink="http://www.w3.org/1999/xlink" width="200" height="200"><path d="M340.288 952.32a464.384 464.384 0 0 1-156.8-106.432A484.672 484.672 0 0 1 47.36 507.328c0-132.16 51.968-251.84 136.064-338.432C268.16 81.536 390.08 37.888 512 37.888c121.856 0 243.776 43.648 328.512 130.944a484.672 484.672 0 0 1 136.064 338.56 484.672 484.672 0 0 1-136.064 338.56 464.384 464.384 0 0 1-156.8 106.432 452.928 452.928 0 0 1-343.424 0zM512 133.44c-97.344 0-194.688 34.816-262.4 104.576a384.32 384.32 0 0 0-89.728 149.568c-5.12 19.136 1.664 28.16 20.288 27.136 61.056-2.432 192.64-4.352 219.712-5.76-23.232 27.136-37.312 62.72-37.312 101.76 0 42.496 16.768 81.024 43.776 108.864 9.6 9.984 20.608 18.56 32.64 25.472A145.792 145.792 0 0 0 617.6 619.52a155.904 155.904 0 0 0 43.776-108.864c0-39.04-14.08-74.624-37.312-101.76 27.008 1.408 158.656 3.328 219.712 5.76 18.56 1.024 25.408-8 20.288-27.136A384 384 0 0 0 774.4 237.952C706.688 168.192 609.344 133.376 512 133.376z m83.84 291.072c-43.264-44.608-124.416-44.608-167.68 0a123.712 123.712 0 0 0-34.752 86.4c0 33.728 13.312 64.256 34.752 86.4a116.096 116.096 0 0 0 167.68 0c21.44-22.144 34.752-52.672 34.752-86.4 0-33.792-13.312-64.32-34.752-86.4z m-62.336 131.52a50.56 50.56 0 0 0 27.392-45.312 50.432 50.432 0 0 0-30.336-46.656 47.936 47.936 0 0 0-37.12 0 50.432 50.432 0 0 0-30.336 46.656c0 19.84 11.136 37.12 27.392 45.312 13.44 6.72 29.632 6.72 43.008 0z m55.488 326.4a367.168 367.168 0 0 0 185.344-103.68 385.344 385.344 0 0 0 102.592-200.896c4.992-21.12-3.84-27.52-19.2-27.008-31.168-0.64-62.272-0.576-91.904 5.184-105.6 20.48-143.36 73.088-162.112 193.984-6.784 43.904-11.072 95.36-14.72 132.48z m-153.984 0c-3.648-37.12-7.936-88.512-14.72-132.416-18.688-120.96-56.512-173.44-162.112-193.92-29.632-5.76-60.8-5.952-91.904-5.248-15.36-0.512-24.192 5.952-19.2 27.008 13.824 77.76 50.56 147.2 102.528 200.896a367.232 367.232 0 0 0 185.408 103.68z" p-id="1607" fill="#1296db"></path></svg>