<?xml version="1.0" standalone="no"?><!DOCTYPE svg PUBLIC "-//W3C//DTD SVG 1.1//EN" "http://www.w3.org/Graphics/SVG/1.1/DTD/svg11.dtd"><svg t="1728931282309" class="icon" viewBox="0 0 1024 1024" version="1.1" xmlns="http://www.w3.org/2000/svg" p-id="1617" xmlns:xlink="http://www.w3.org/1999/xlink" width="200" height="200"><path d="M153.090483 709.529245a389.222205 389.222205 0 0 1 717.823642 0 409.599795 409.599795 0 1 0-717.823642 0zM874.242123 141.414329A519.37254 519.37254 0 0 1 1024.002048 506.879747a516.710142 516.710142 0 0 1-149.759925 365.414217 511.590144 511.590144 0 0 1-172.799914 115.199942A508.774146 508.774146 0 0 1 512.002304 1023.999488a506.367747 506.367747 0 0 1-362.239819-151.705524A516.710142 516.710142 0 0 1 0.00256 506.879747a516.710142 516.710142 0 0 1 149.759925-365.465418C243.202438 47.359976 377.602371 0 512.002304 0s268.799866 47.359976 362.239819 141.414329z m-260.35187 41.42078a141.311929 141.311929 0 0 1 41.471979 102.553548 144.895928 144.895928 0 0 1-75.929562 127.846336 143.359928 143.359928 0 0 1-134.860732 0A144.895928 144.895928 0 0 1 368.642376 285.388657c0-40.03838 16.179192-76.543962 42.137579-102.502348 52.735974-52.735974 151.091124-52.735974 203.110298 0V182.783909zM572.674274 716.799642h92.262354c40.49918 0 72.345564-22.527989 72.345563-51.199975s-32.767984-51.199974-72.345563-51.199974H359.06798c-40.49918 0-72.345564 22.527989-72.345563 51.199974s32.767984 51.199974 72.345563 51.199975h92.313554a39.42398 39.42398 0 0 0-0.819199 7.935996v107.007946c0 27.391986 27.852786 48.895976 61.439969 48.895976 33.587183 0 60.56957-22.220789 61.439969-48.895976v-107.007946a40.85758 40.85758 0 0 0-0.767999-7.935996z" p-id="1618" fill="#1296db"></path></svg>